<?xml version="1.0" encoding="UTF-8"?>
<svg width="40" height="40" viewBox="0 0 40 40" xmlns="http://www.w3.org/2000/svg">
  <style>
    .dog { fill: #ffffff; }
    .ear { fill: #f4f4f4; }
    .nose { fill: #222; }
    .cheek { fill: #ffefef; }
  </style>
  <g class="dog">
    <!-- 몸통 -->
    <circle cx="20" cy="20" r="18" class="dog"/>
    <!-- 볼터치 -->
    <circle class="cheek" cx="12" cy="22" r="4" opacity="0.6"/>
    <circle class="cheek" cx="28" cy="22" r="4" opacity="0.6"/>
    <!-- 눈 -->
    <circle cx="15" cy="18" r="2.2" fill="#222"/>
    <circle cx="25" cy="18" r="2.2" fill="#222"/>
    <circle cx="14.5" cy="17" r="0.8" fill="#fff"/>
    <circle cx="24.5" cy="17" r="0.8" fill="#fff"/>
    <!-- 코 -->
    <circle class="nose" cx="20" cy="21" r="2"/>
    <!-- 귀여운 미소 -->
    <path d="M15,24 Q20,26 25,24" stroke="#222" fill="none" stroke-width="1.5" stroke-linecap="round"/>
    <!-- 귀 (바깥으로 노출) -->
    <path class="ear" d="M6,14 C4,18 6,26 12,20 C10,18 8,16 6,14 Z"/>
    <path class="ear" d="M34,14 C36,18 34,26 28,20 C30,18 32,16 34,14 Z"/>
    <!-- 볼터치 -->
    <circle class="cheek" cx="12" cy="22" r="4" opacity="0.6"/>
    <circle class="cheek" cx="28" cy="22" r="4" opacity="0.6"/>
    <!-- 눈 -->
    <circle cx="15" cy="18" r="2.2" fill="#222"/>
    <circle cx="25" cy="18" r="2.2" fill="#222"/>
    <circle cx="14.5" cy="17" r="0.8" fill="#fff"/>
    <circle cx="24.5" cy="17" r="0.8" fill="#fff"/>
    <!-- 코 -->
    <circle class="nose" cx="20" cy="21" r="2"/>
    <!-- 귀여운 미소 -->
    <path d="M15,24 Q20,26 25,24" stroke="#222" fill="none" stroke-width="1.5" stroke-linecap="round"/>
  </g>
</svg>